<svg width="37" height="37" viewBox="0 0 37 37" fill="none" xmlns="http://www.w3.org/2000/svg">
<path d="M29.4175 0H6.68579C2.99333 0 0 2.99333 0 6.68579V29.4175C0 33.1099 2.99333 36.1033 6.68579 36.1033H29.4175C33.11 36.1033 36.1033 33.1099 36.1033 29.4175V6.68579C36.1033 2.99333 33.11 0 29.4175 0Z" fill="#0F0F0F"/>
<path d="M21.5385 6.59957C21.8411 6.90209 22.0448 7.28939 22.1225 7.7102C22.2002 8.13101 22.1482 8.56549 21.9736 8.95615C21.7989 9.3468 21.5097 9.6752 21.1443 9.89788C20.7789 10.1206 20.3545 10.227 19.9272 10.2032L12.0781 18.0523C11.8121 18.3183 11.6627 18.679 11.6627 19.0552C11.6627 19.4313 11.8121 19.7921 12.0781 20.0581C12.3441 20.324 12.7048 20.4735 13.081 20.4735C13.4571 20.4735 13.8179 20.324 14.0838 20.0581L20.0576 14.0709C20.6745 13.4521 21.4684 13.0402 22.3296 12.8922C23.1908 12.7443 24.0767 12.8677 24.8647 13.2452C25.2984 13.451 25.6931 13.7303 26.0313 14.0709C26.4246 14.4626 26.7367 14.9281 26.9496 15.4406C27.1626 15.9532 27.2722 16.5028 27.2722 17.0578C27.2722 17.6129 27.1626 18.1624 26.9496 18.675C26.7367 19.1876 26.4246 19.653 26.0313 20.0447L18.1689 27.8938C18.1899 28.32 18.0815 28.7427 17.8577 29.106C17.6339 29.4694 17.3053 29.7565 16.9152 29.9295C16.5251 30.1025 16.0917 30.1533 15.6722 30.0753C15.2526 29.9972 14.8666 29.7939 14.5648 29.4921C14.2631 29.1904 14.0598 28.8043 13.9817 28.3847C13.9036 27.9652 13.9544 27.5318 14.1274 27.1417C14.3004 26.7516 14.5875 26.423 14.9509 26.1993C15.3143 25.9755 15.7369 25.867 16.1631 25.8881L24.0256 18.0523C24.1573 17.9206 24.2618 17.7643 24.3331 17.5922C24.4043 17.4201 24.441 17.2357 24.441 17.0495C24.441 16.8632 24.4043 16.6788 24.3331 16.5067C24.2618 16.3346 24.1573 16.1783 24.0256 16.0466C23.8939 15.9149 23.7376 15.8104 23.5655 15.7391C23.3934 15.6679 23.209 15.6312 23.0227 15.6312C22.8365 15.6312 22.6521 15.6679 22.48 15.7391C22.3079 15.8104 22.1516 15.9149 22.0199 16.0466L16.0461 22.0337C15.4293 22.6526 14.6353 23.0645 13.7741 23.2124C12.9129 23.3603 12.027 23.237 11.239 22.8594C10.8053 22.6537 10.4106 22.3743 10.0724 22.0337C9.67908 21.6421 9.36702 21.1766 9.15409 20.664C8.94115 20.1515 8.83154 19.6019 8.83154 19.0468C8.83154 18.4918 8.94115 17.9422 9.15409 17.4297C9.36702 16.9171 9.67908 16.4516 10.0724 16.06L17.9349 8.21084C17.911 7.78359 18.0175 7.35916 18.2402 6.99375C18.4629 6.62833 18.7913 6.33915 19.1819 6.16448C19.5726 5.98982 20.007 5.93789 20.4279 6.01558C20.8487 6.09327 21.236 6.29692 21.5385 6.59957Z" fill="white"/>
</svg>
