<svg width="500" height="135" viewBox="0 0 500 135" fill="none" xmlns="http://www.w3.org/2000/svg">
<path d="M114.52 0H20.202C9.04475 0 0 9.04475 0 20.202V114.52C0 125.677 9.04475 134.722 20.202 134.722H114.52C125.677 134.722 134.722 125.677 134.722 114.52V20.202C134.722 9.04475 125.677 0 114.52 0Z" fill="#231F20"/>
<path d="M81.2878 21.5909C82.4924 22.8011 83.302 24.348 83.6098 26.0276C83.9175 27.7072 83.709 29.4407 83.0117 30.9994C82.3143 32.5581 81.161 33.8689 79.7037 34.7589C78.2464 35.6489 76.5535 36.0763 74.8484 35.9848L43.4721 67.361C42.4156 68.4176 41.8221 69.8505 41.8221 71.3446C41.8221 72.8388 42.4156 74.2717 43.4721 75.3282C44.5286 76.3847 45.9616 76.9783 47.4557 76.9783C48.9498 76.9783 50.3828 76.3847 51.4393 75.3282L75.3282 51.4393C77.7962 48.9683 80.9703 47.3242 84.4124 46.7339C87.8546 46.1436 91.3951 46.6363 94.5454 48.1439C96.278 48.9635 97.8546 50.0786 99.2045 51.4393C100.562 52.7917 101.677 54.3677 102.5 56.0984C104.007 59.251 104.499 62.7932 103.909 66.2371C103.318 69.681 101.675 72.8573 99.2045 75.3282L67.8282 106.692C67.9227 108.397 67.4973 110.091 66.6082 111.549C65.7191 113.008 64.4082 114.162 62.849 114.859C61.2897 115.556 59.5556 115.763 57.876 115.453C56.1964 115.143 54.6505 114.33 53.4428 113.123C52.2351 111.915 51.4225 110.369 51.1125 108.689C50.8025 107.01 51.0098 105.276 51.7068 103.717C52.4039 102.157 53.5579 100.846 55.0162 99.9573C56.4744 99.0682 58.1683 98.6428 59.8736 98.7373L91.2499 67.361C92.163 66.2847 92.6386 64.9047 92.5825 63.4943C92.5265 62.084 91.9428 60.7461 90.9471 59.7457C89.9514 58.7452 88.6163 58.1552 87.2063 58.0923C85.7962 58.0295 84.4139 58.4986 83.3332 59.4065L59.4065 83.3333C56.9355 85.8038 53.7593 87.4473 50.3154 88.0375C46.8714 88.6277 43.3292 88.1355 40.1767 86.6287C36.6937 84.9646 33.8862 82.1572 32.2221 78.6742C30.7145 75.5239 30.2219 71.9834 30.8122 68.5412C31.4024 65.0991 33.0465 61.925 35.5176 59.457L66.9191 28.0302C66.8276 26.3251 67.255 24.6323 68.145 23.175C69.035 21.7177 70.3458 20.5643 71.9045 19.867C73.4632 19.1697 75.1966 18.9611 76.8763 19.2689C78.5559 19.5766 80.1028 20.3862 81.313 21.5909H81.2878Z" fill="white"/>
<path d="M158.094 42.9293C158.025 39.2342 159.082 35.6057 161.124 32.5253C163.23 29.4425 166.15 27.0038 169.558 25.4798C173.478 23.7235 177.739 22.861 182.033 22.9545C186.111 22.856 190.158 23.6759 193.876 25.3535C197.082 26.8278 199.799 29.1894 201.705 32.1591C203.636 35.3248 204.67 38.9559 204.697 42.6641H192.904C192.907 41.3761 192.628 40.1029 192.087 38.9339C191.546 37.7649 190.756 36.7282 189.773 35.8965C187.49 34.1777 184.671 33.3273 181.818 33.4975C178.726 33.3404 175.668 34.196 173.106 35.9343C172.055 36.6939 171.207 37.7005 170.636 38.8654C170.066 40.0302 169.791 41.3175 169.836 42.6136C169.779 43.6405 169.924 44.6686 170.264 45.6392C170.604 46.6097 171.132 47.5038 171.818 48.2702C173.554 49.8687 175.709 50.9415 178.03 51.3636L188.611 53.75C194.394 54.9874 198.695 57.0917 201.515 60.0631C204.335 63.0345 205.766 67.0412 205.808 72.0833C205.913 75.9235 204.857 79.7059 202.777 82.9362C200.698 86.1665 197.693 88.6943 194.154 90.1894C190.041 91.9511 185.598 92.8121 181.124 92.7146C176.851 92.8079 172.609 91.9766 168.687 90.2778C165.321 88.8128 162.434 86.433 160.354 83.4091C158.312 80.3214 157.21 76.7069 157.184 73.005H168.965C168.95 74.3071 169.248 75.5937 169.835 76.7562C170.422 77.9187 171.28 78.923 172.336 79.6843C174.941 81.4307 178.042 82.2857 181.174 82.1212C184.466 82.2974 187.731 81.4458 190.518 79.6843C191.597 78.9918 192.483 78.0366 193.093 76.9081C193.702 75.7796 194.015 74.5148 194.003 73.2323C194.11 71.2088 193.457 69.2181 192.172 67.6515C190.536 66.0674 188.433 65.0534 186.174 64.7601L175.505 62.3232C169.798 61.1027 165.471 58.8763 162.525 55.6439C159.459 52.1384 157.871 47.5812 158.094 42.9293Z" fill="black"/>
<path d="M233.763 91.5909C229.548 91.6715 225.391 90.5974 221.743 88.4848C218.272 86.4408 215.429 83.4842 213.523 79.9369C211.487 76.0948 210.466 71.7966 210.556 67.4495C210.468 63.0687 211.457 58.7333 213.434 54.8232C215.264 51.2604 218.06 48.2849 221.503 46.2374C225.103 44.1314 229.214 43.0568 233.384 43.1313C237.569 43.014 241.708 44.0258 245.366 46.0606C248.675 47.9684 251.366 50.7864 253.119 54.1793C255.032 58.0397 255.972 62.3092 255.859 66.6162V70.4798L214.192 70.5808L214.394 62.904H244.697C244.748 61.5009 244.506 60.1025 243.987 58.7981C243.467 57.4937 242.681 56.312 241.679 55.3283C239.461 53.332 236.541 52.2968 233.561 52.4495C231.205 52.37 228.873 52.9518 226.831 54.1288C224.937 55.3165 223.483 57.0898 222.689 59.1793C221.698 61.7856 221.226 64.5609 221.301 67.3485C221.301 72.298 222.37 76.0396 224.508 78.5732C226.646 81.1069 229.819 82.3695 234.028 82.3611C236.69 82.4624 239.331 81.8523 241.679 80.5934C242.641 80.0571 243.486 79.3341 244.165 78.4668C244.844 77.5996 245.342 76.6055 245.631 75.5429H256.111C255.291 80.2874 252.644 84.5213 248.737 87.3359C244.332 90.3248 239.082 91.8167 233.763 91.5909Z" fill="black"/>
<path d="M292.475 46.2247V55.3283H289.381C285.173 55.3283 281.911 56.4226 279.596 58.6111C277.281 60.7997 276.103 64.1077 276.061 68.5354V90.6818H264.697V46.4899H275L275.897 55.3283H274.823C275.364 52.5912 276.858 50.1348 279.041 48.3965C281.507 46.519 284.555 45.5672 287.652 45.7071C288.422 45.7071 289.205 45.7071 289.975 45.7955C290.819 45.8696 291.655 46.0132 292.475 46.2247Z" fill="black"/>
<path d="M314.773 90.6818L296.717 45.2273H308.674L316.591 66.1111C317.567 68.8131 318.409 71.2837 319.116 73.5227C319.823 75.7576 320.379 77.5 320.631 78.7247C321.078 76.8655 321.626 75.032 322.273 73.2323C323.039 71.0017 323.914 68.6237 324.899 66.0985L333.169 45.2146H344.773L325.833 90.6692L314.773 90.6818Z" fill="black"/>
<path d="M368.864 91.5909C364.649 91.6715 360.492 90.5974 356.844 88.4848C353.374 86.4408 350.53 83.4842 348.624 79.9369C346.588 76.0948 345.567 71.7966 345.657 67.4495C345.569 63.0687 346.558 58.7333 348.535 54.8232C350.365 51.2604 353.161 48.2849 356.604 46.2374C360.204 44.1314 364.315 43.0568 368.485 43.1313C372.67 43.014 376.809 44.0258 380.467 46.0606C383.776 47.9684 386.467 50.7864 388.22 54.1793C390.133 58.0397 391.073 62.3092 390.96 66.6162V70.4798L349.293 70.5808L349.495 62.904H379.798C379.849 61.5009 379.607 60.1025 379.088 58.7981C378.568 57.4937 377.782 56.312 376.78 55.3283C374.562 53.332 371.642 52.2968 368.662 52.4495C366.306 52.37 363.974 52.9518 361.932 54.1288C360.038 55.3165 358.584 57.0898 357.79 59.1793C356.799 61.7856 356.327 64.5609 356.402 67.3485C356.402 72.298 357.471 76.0396 359.609 78.5732C361.747 81.1069 364.92 82.3695 369.129 82.3611C371.791 82.4624 374.432 81.8523 376.78 80.5934C377.742 80.0571 378.587 79.3341 379.266 78.4668C379.945 77.5996 380.443 76.6055 380.732 75.5429H391.212C390.392 80.2874 387.745 84.5213 383.838 87.3359C379.433 90.3248 374.183 91.8167 368.864 91.5909Z" fill="black"/>
<path d="M427.576 46.2247V55.3283H424.482C420.316 55.3283 417.054 56.4226 414.697 58.6111C412.34 60.7997 411.162 64.1077 411.162 68.5354V90.6818H399.798V46.4899H410.101L410.998 55.3283H409.924C410.465 52.5912 411.959 50.1348 414.142 48.3965C416.608 46.519 419.656 45.5672 422.753 45.7071C423.523 45.7071 424.306 45.7071 425.076 45.7955C425.92 45.8696 426.756 46.0132 427.576 46.2247Z" fill="black"/>
<path d="M446.515 90.6818H435.152V22.5H446.515V90.6818Z" fill="black"/>
<path d="M464.571 45.2273L479.205 86.6793L473.207 98.0429L452.841 45.2273H464.571ZM454.091 111.275V102.045H460.758C462.038 102.065 463.315 101.895 464.546 101.54C465.68 101.185 466.702 100.541 467.513 99.6717C468.538 98.5095 469.3 97.14 469.748 95.6566L488.472 45.2273H500L477.892 100.404C476.686 103.929 474.537 107.055 471.679 109.444C468.975 111.399 465.696 112.394 462.361 112.273C460.881 112.278 459.401 112.202 457.929 112.045C456.629 111.905 455.345 111.647 454.091 111.275Z" fill="black"/>
</svg>
